<svg width="58" height="78" viewBox="0 0 58 78" fill="none" xmlns="http://www.w3.org/2000/svg">
<path d="M46.4576 41.6361C46.4576 41.6361 46.4576 37.1499 46.4576 33.4775C46.4576 30.8833 48.5612 28.7812 51.1785 28.7812H51.2966C53.8138 28.7812 55.8534 30.8209 55.8534 33.338V42.1317C55.8534 54.2186 53.8023 59.7944 52.4108 62.1868C51.7085 63.3946 51.2031 64.704 50.9438 66.0758C49.8789 71.7254 44.9184 76 38.9586 76H29.6481C23.6654 76 18.6803 71.691 17.6482 65.9921C17.3709 64.4579 16.8326 62.9827 15.9909 61.6716L3.08513 41.5393C1.35069 39.2453 1.73466 35.9898 3.95645 34.1634C5.95015 32.5242 8.82994 32.5373 10.8072 34.1979L18.1995 40.4005C18.1995 40.4005 18.1995 16.9454 18.1995 6.69628C18.1995 4.102 20.3032 2 22.9204 2H23.0386C25.5541 2 27.5954 4.03965 27.5954 6.5568L27.6692 34.7394V25.675C27.6692 23.0807 29.7728 21.2003 32.3655 21.2003C34.9598 21.2003 37.0618 23.3039 37.0618 25.8965V29.1931C37.0618 26.5988 39.1654 24.4968 41.758 24.4968C44.3523 24.4968 46.4543 26.6005 46.4543 29.1931V41.6361H46.4576Z" stroke="white" stroke-width="3.7905" stroke-linecap="round" stroke-linejoin="round"/>
</svg>
